<svg t="1566792318338" class="icon" viewBox="0 0 1024 1024" version="1.1" xmlns="http://www.w3.org/2000/svg" p-id="4538" width="64" height="64"><path d="M402.4 744.8h-44c-7.2 0-13.6-4.8-15.2-12-13.6-53.6-62.4-90.4-116.8-90.4-55.2 0-103.2 36.8-116.8 90.4-1.6 7.2-8 12-15.2 12H27.2c-8.8 0-16-7.2-16-16v-176c0-4 1.6-7.2 4-10.4l196-218.4c3.2-3.2 7.2-4.8 12-4.8h179.2c8.8 0 16 7.2 16 16v395.2c-0.8 7.2-7.2 14.4-16 14.4z m-32-31.2h16.8V349.6H230.4L43.2 558.4v155.2h40c20.8-60.8 78.4-102.4 144-102.4 64 0 121.6 41.6 143.2 102.4z" p-id="4539" fill="#1296db"></path><path d="M358.4 575.2H92.8c-3.2 0-5.6-1.6-7.2-4.8-1.6-3.2-0.8-6.4 1.6-8.8l164.8-182.4c1.6-1.6 3.2-2.4 5.6-2.4h100.8c4 0 8 3.2 8 8v182.4c0 4-4 8-8 8z m-248-16h240V392.8H260.8L110.4 559.2zM443.2 298.4H225.6c-8.8 0-16-7.2-16-16s7.2-16 16-16h217.6c8.8 0 16 7.2 16 16-0.8 9.6-7.2 16-16 16zM883.2 298.4H564.8c-6.4 0-12-4-14.4-9.6-2.4-5.6-0.8-12.8 3.2-16.8l159.2-159.2c5.6-5.6 16-5.6 22.4 0L894.4 272c4.8 4.8 5.6 11.2 3.2 16.8-2.4 6.4-8 9.6-14.4 9.6z m-280.8-31.2h244L724 145.6 602.4 267.2zM648.8 744.8H402.4c-8.8 0-16-7.2-16-16V640c0-8.8 7.2-16 16-16h320c7.2 0 13.6 4.8 15.2 12 1.6 7.2-1.6 14.4-8.8 17.6-32 15.2-56 44-64.8 78.4-1.6 8-8 12.8-15.2 12.8z m-231.2-31.2h219.2c8-21.6 20-41.6 36-57.6H417.6v57.6zM980 744.8h-67.2c-7.2 0-13.6-4.8-15.2-12-8.8-34.4-32.8-63.2-64.8-78.4-6.4-3.2-10.4-10.4-8.8-17.6 1.6-7.2 8-12 15.2-12h140.8c8.8 0 16 7.2 16 16v88.8c-0.8 8-7.2 15.2-16 15.2z m-55.2-31.2h40V656H888c16.8 16 28.8 35.2 36.8 57.6z" p-id="4540" fill="#1296db"></path><path d="M930.4 656.8h-88.8c-2.4 0-4.8-0.8-7.2-1.6-34.4-16.8-74.4-16.8-108 0-2.4 0.8-4.8 1.6-7.2 1.6H508.8c-7.2 0-14.4-5.6-15.2-12.8l-65.6-358.4c-0.8-4.8 0-9.6 3.2-12.8 3.2-3.2 7.2-5.6 12-5.6h553.6c4.8 0 8.8 2.4 12 5.6 3.2 3.2 4 8 3.2 12.8l-65.6 358.4c-1.6 8-8 12.8-16 12.8z m-84.8-31.2h72l60-327.2H461.6l60 327.2h194.4c40.8-19.2 88.8-19.2 129.6 0zM226.4 916c-84 0-152-68-152-152s68-152 152-152 152 68 152 152-68 152-152 152z m0-273.6c-66.4 0-120.8 54.4-120.8 120.8s54.4 120.8 120.8 120.8 120.8-54.4 120.8-120.8-54.4-120.8-120.8-120.8z" p-id="4541" fill="#1296db"></path><path d="M226.4 814.4c-28 0-50.4-22.4-50.4-50.4s22.4-50.4 50.4-50.4 50.4 22.4 50.4 50.4-22.4 50.4-50.4 50.4z m0-85.6c-19.2 0-35.2 16-35.2 35.2 0 19.2 16 35.2 35.2 35.2 19.2 0 35.2-16 35.2-35.2 0-20-16-35.2-35.2-35.2zM780.8 916c-84 0-152-68-152-152s68-152 152-152 152 68 152 152-68 152-152 152z m0-273.6c-66.4 0-120.8 54.4-120.8 120.8s54.4 120.8 120.8 120.8 120.8-54.4 120.8-120.8-53.6-120.8-120.8-120.8z" p-id="4542" fill="#1296db"></path><path d="M780.8 814.4c-28 0-50.4-22.4-50.4-50.4s22.4-50.4 50.4-50.4 50.4 22.4 50.4 50.4-22.4 50.4-50.4 50.4z m0-85.6c-19.2 0-35.2 16-35.2 35.2 0 19.2 16 35.2 35.2 35.2 19.2 0 35.2-16 35.2-35.2 0-20-16-35.2-35.2-35.2zM579.2 560.8c-4 0-8-3.2-8-8V372c0-4 3.2-8 8-8 4 0 8 3.2 8 8v180.8c0 4-4 8-8 8zM672.8 560.8c-4 0-8-3.2-8-8V372c0-4 3.2-8 8-8s8 3.2 8 8v180.8c0 4-3.2 8-8 8zM766.4 560.8c-4 0-8-3.2-8-8V372c0-4 3.2-8 8-8 4 0 8 3.2 8 8v180.8c0 4-3.2 8-8 8zM860.8 560.8c-4 0-8-3.2-8-8V372c0-4 3.2-8 8-8 4 0 8 3.2 8 8v180.8c-0.8 4-4 8-8 8z"  fill="#1296db"></path></svg>
