<svg  width="128" height="128"  viewBox="60 -15 400 530"  xmlns="http://www.w3.org/2000/svg"><path d="m194.34375 129.476562c-3.933594 0-7.324219-2.957031-7.777344-6.957031-2.476562-21.925781-8.28125-42.109375-16.355468-57.457031-7.148438 12.167969-17.222657 21.785156-30.078126 28.683594-15.351562 8.230468-31.125 7.203125-43.277343-2.820313-13-10.71875-18.867188-30.027343-13.949219-45.910156 4.832031-15.59375 18.742188-25.53125 38.171875-27.261719 16.632813-1.476562 31.742187 3.71875 44.351563 15.125 2.429687-13.386718 1.046874-23.828125 1.027343-23.964844-.597656-4.289062 2.398438-8.246093 6.683594-8.8398432 4.289063-.5898438 8.246094 2.3984372 8.839844 6.6875002.117187.835937 2.601562 19.613281-4.03125 40.71875 8.070312 11.957031 19.894531 35.269531 24.191406 73.277343.484375 4.300782-2.605469 8.179688-6.90625 8.664063-.296875.035156-.597656.054687-.890625.054687zm-67.816406-96.292968c-1.335938 0-2.6875.0625-4.058594.183594-13.148438 1.171874-21.652344 6.804687-24.589844 16.289062-3.066406 9.898438.78125 22.445312 8.949219 29.179688 5.023437 4.140624 13.59375 7.695312 25.894531 1.101562 12.582032-6.753906 21.835938-16.792969 27.558594-29.878906-9.519531-11.210938-20.84375-16.875-33.753906-16.875zm0 0" fill="#bf6a30"/><path d="m388.976562 310.480469c0 100.582031-76.519531 183.296875-174.527343 193.097656-6.429688.648437-12.949219.972656-19.542969.972656-107.183594 0-194.066406-86.894531-194.066406-194.070312 0-107.183594 86.882812-194.066407 194.066406-194.066407 107.1875 0 194.070312 86.882813 194.070312 194.066407zm0 0" fill="#adc165"/><path d="m388.976562 310.480469c0 100.582031-76.519531 183.296875-174.527343 193.097656-98.003907-9.789063-174.542969-92.515625-174.542969-193.097656zm0 0" fill="#99aa52"/><path d="m237.171875 499.746094c-13.867187 3.144531-28.285156 4.804687-43.101563 4.804687-107.175781 0-194.070312-86.894531-194.070312-194.070312 0-107.183594 86.894531-194.066407 194.070312-194.066407 14.816407 0 29.234376 1.660157 43.101563 4.804688-86.445313 19.59375-150.96875 96.894531-150.96875 189.261719 0 92.359375 64.523437 169.660156 150.96875 189.265625zm0 0" fill="#99aa52"/><path d="m99.042969 449.984375c-2.621094 0-5.179688-1.3125-6.664063-3.703125-23.089844-37.164062-35.808594-85.394531-35.808594-135.800781 0-53.378907 14.046876-103.667969 39.554688-141.601563 2.417969-3.59375 7.285156-4.546875 10.878906-2.132812 3.589844 2.414062 4.542969 7.285156 2.128906 10.878906-23.789062 35.375-36.886718 82.558594-36.886718 132.855469 0 47.523437 11.875 92.8125 33.445312 127.53125 2.285156 3.675781 1.15625 8.507812-2.519531 10.789062-1.289063.800781-2.71875 1.183594-4.128906 1.183594zm0 0" fill="#4d4d4d"/><path d="m290.773438 449.984375c-1.414063 0-2.839844-.382813-4.128907-1.183594-3.679687-2.28125-4.804687-7.113281-2.523437-10.789062 21.570312-34.71875 33.449218-80.007813 33.449218-127.53125 0-50.296875-13.101562-97.480469-36.890624-132.855469-2.414063-3.59375-1.460938-8.460938 2.132812-10.875 3.589844-2.417969 8.460938-1.460938 10.875 2.128906 25.507812 37.933594 39.554688 88.222656 39.554688 141.601563 0 50.40625-12.714844 98.636719-35.808594 135.800781-1.480469 2.390625-4.042969 3.703125-6.660156 3.703125zm0 0" fill="#4d4d4d"/><path d="m159.679688 449.984375c-3.574219 0-6.804688-2.460937-7.632813-6.097656-8.328125-36.492188-12.914063-83.875-12.914063-133.410157 0-52.453124 5.066407-101.855468 14.269532-139.105468 1.035156-4.203125 5.285156-6.765625 9.488281-5.726563 4.199219 1.035157 6.765625 5.285157 5.726563 9.484375-8.90625 36.058594-13.8125 84.128906-13.8125 135.351563 0 48.394531 4.449218 94.535156 12.523437 129.921875.964844 4.21875-1.675781 8.421875-5.894531 9.382812-.589844.132813-1.175782.199219-1.753906.199219zm0 0" fill="#4d4d4d"/><path d="m230.132812 449.984375c-.578124 0-1.164062-.066406-1.75-.199219-4.21875-.960937-6.859374-5.164062-5.898437-9.382812 8.078125-35.386719 12.527344-81.527344 12.527344-129.921875 0-51.222657-4.90625-99.292969-13.8125-135.351563-1.039063-4.199218 1.523437-8.449218 5.726562-9.484375 4.207031-1.039062 8.449219 1.523438 9.488281 5.726563 9.203126 37.25 14.269532 86.652344 14.269532 139.105468 0 49.539063-4.589844 96.917969-12.917969 133.410157-.828125 3.636719-4.058594 6.097656-7.632813 6.097656zm0 0" fill="#4d4d4d"/><path d="m123.859375 310.480469c0 107.179687 86.890625 194.070312 194.070313 194.070312 107.183593 0 194.070312-86.890625 194.070312-194.070312zm0 0" fill="#adc165"/><path d="m167.835938 310.480469c0 82.894531 67.199218 150.09375 150.09375 150.09375 82.894531 0 150.097656-67.199219 150.097656-150.09375zm0 0" fill="#ff4440"/><g fill="#4d4d4d"><path d="m242.703125 358.625c-4.328125 0-7.839844-3.507812-7.839844-7.835938v-5.222656c0-4.328125 3.511719-7.835937 7.839844-7.835937s7.835937 3.507812 7.835937 7.835937v5.222656c0 4.328126-3.507812 7.835938-7.835937 7.835938zm0 0"/><path d="m393.160156 358.625c-4.328125 0-7.839844-3.507812-7.839844-7.835938v-5.222656c0-4.328125 3.511719-7.835937 7.839844-7.835937s7.835938 3.507812 7.835938 7.835937v5.222656c0 4.328126-3.507813 7.835938-7.835938 7.835938zm0 0"/><path d="m317.929688 358.625c-4.328126 0-7.835938-3.507812-7.835938-7.835938v-5.222656c0-4.328125 3.507812-7.835937 7.835938-7.835937 4.328124 0 7.835937 3.507812 7.835937 7.835937v5.222656c0 4.328126-3.507813 7.835938-7.835937 7.835938zm0 0"/><path d="m350.84375 415.046875c-4.328125 0-7.839844-3.507813-7.839844-7.835937v-5.222657c0-4.328125 3.511719-7.839843 7.839844-7.839843s7.835938 3.511718 7.835938 7.839843v5.222657c0 4.328124-3.507813 7.835937-7.835938 7.835937zm0 0"/><path d="m285.019531 412.957031c-4.328125 0-7.839843-3.507812-7.839843-7.835937v-5.222656c0-4.328126 3.511718-7.839844 7.839843-7.839844s7.835938 3.511718 7.835938 7.839844v5.222656c0 4.328125-3.507813 7.835937-7.835938 7.835937zm0 0"/></g></svg>
