<svg t="1566957259258" class="icon" viewBox="0 0 1024 1024" version="1.1" xmlns="http://www.w3.org/2000/svg" p-id="3610" width="200" height="200"><path d="M951.68 793.454H72.312C32.376 793.454 0 761.078 0 721.14V116.32C0 76.382 32.376 44.016 72.312 44.016H951.68c39.938 0 72.312 32.366 72.312 72.304v604.82c0 39.94-32.374 72.314-72.312 72.314z m0 0" fill="#E9EDF1" p-id="3611"></path><path d="M1024 116.328v604.82c0 39.938-32.39 72.312-72.328 72.312H842.6c39.938 0 72.328-32.374 72.328-72.312V619.08h51.476V122.304a20.12 20.12 0 0 0-20.124-20.124h-32.728C906.968 69.016 877.71 44 842.602 44h109.07C991.61 44 1024 76.39 1024 116.328z m0 0" fill="#DAE2E8" p-id="3612"></path><path d="M658.976 966.032h-293.96l23.382-172.58 130.938-4 116.258 4z m0 0" fill="#618AAA" p-id="3613"></path><path d="M951.68 793.454H72.312C32.376 793.454 0 761.078 0 721.14v-102.06h1023.992v102.06c0 39.94-32.374 72.314-72.312 72.314z m0 0" fill="#4F7693" p-id="3614"></path><path d="M914.92 721.14c0 39.94-32.374 72.314-72.31 72.314h109.07c2.5 0 4.96-0.126 7.4-0.376a71.694 71.694 0 0 0 27.068-8.352 72.406 72.406 0 0 0 14.156-10.054 72.404 72.404 0 0 0 20.44-32.024 73.2 73.2 0 0 0 1.78-6.93 72.88 72.88 0 0 0 1.468-14.578v-102.06h-109.07z m0 0M606.632 966.032h52.344l-23.382-172.58H388.398l-6.608 48.76h83.116c71.562 0 132.118 52.898 141.726 123.82z m0 0" fill="#38627C" p-id="3615"></path><path d="M689.04 981.704H334.954c-8.658 0-15.672-7.016-15.672-15.672s7.014-15.672 15.672-15.672H689.04c8.656 0 15.67 7.014 15.67 15.672s-7.014 15.672-15.67 15.672z m0 0" fill="#4F7693" p-id="3616"></path><path d="M375.08 122.304V619.08H57.6V122.304c0-11.116 9.01-20.124 20.104-20.124h277.25a20.12 20.12 0 0 1 20.124 20.124z m0 0" fill="#618AAA" p-id="3617"></path><path d="M539.118 706.266c0 14.976-12.14 27.124-27.126 27.124-14.976 0-27.116-12.148-27.116-27.124 0-14.976 12.14-27.126 27.116-27.126 14.984 0 27.126 12.15 27.126 27.126z m0 0" fill="#83D9FF" p-id="3618"></path><path d="M966.406 122.304V619.08h-51.476V116.328c0-4.844-0.476-9.57-1.376-14.148h32.728a20.12 20.12 0 0 1 20.124 20.124z m0 0" fill="#E9EDF1" p-id="3619"></path><path d="M914.93 116.328V619.08H354.078V102.18h559.476c0.9 4.58 1.376 9.306 1.376 14.15z m0 0" fill="#FFFFFF" p-id="3620"></path><path d="M140.876 219.054c-16.134 0-29.212-13.078-29.212-29.21s13.08-29.212 29.21-29.212 29.212 13.08 29.212 29.212-13.08 29.21-29.212 29.21z m0 0" fill="#FF84A7" p-id="3621"></path><path d="M293.476 205.524H220.68a15.67 15.67 0 0 1-15.672-15.672 15.672 15.672 0 0 1 15.672-15.68h72.796a15.672 15.672 0 0 1 15.672 15.68 15.67 15.67 0 0 1-15.672 15.672z m0 0" fill="#2F5066" p-id="3622"></path><path d="M899.6 186.9H421.08a15.678 15.678 0 0 1 0-31.352H899.6a15.67 15.67 0 0 1 15.674 15.67 15.672 15.672 0 0 1-15.672 15.68z m0 0M599.42 247.36h-178.34c-8.66 0-15.68-7.016-15.68-15.672s7.02-15.672 15.68-15.672h178.34c8.66 0 15.674 7.016 15.674 15.672s-7.016 15.672-15.672 15.672z m0 0M899.6 340.382H421.08c-8.66 0-15.68-7.014-15.68-15.672s7.02-15.67 15.68-15.67H899.6a15.67 15.67 0 1 1 0 31.344z m0 0M706.352 400.852H421.078a15.678 15.678 0 1 1 0-31.352h285.274a15.672 15.672 0 0 1 15.672 15.68 15.676 15.676 0 0 1-15.672 15.672z m0 0M899.6 505.258H421.08a15.684 15.684 0 0 1-15.68-15.68 15.678 15.678 0 0 1 15.68-15.672H899.6a15.678 15.678 0 0 1 0 31.352z m0 0M851.852 565.72H421.078a15.678 15.678 0 0 1-15.68-15.674 15.678 15.678 0 0 1 15.68-15.67h430.774a15.672 15.672 0 0 1 0 31.344z m0 0" fill="#A7C7D3" p-id="3623"></path><path d="M140.876 331.954c-16.134 0-29.212-13.08-29.212-29.212s13.08-29.21 29.21-29.21 29.212 13.078 29.212 29.21-13.08 29.212-29.212 29.212z m0 0" fill="#83D9FF" p-id="3624"></path><path d="M293.476 318.42H220.68a15.678 15.678 0 0 1 0-31.35h72.796a15.678 15.678 0 0 1 0 31.352z m0 0" fill="#2F5066" p-id="3625"></path><path d="M140.876 446.9c-16.134 0-29.212-13.08-29.212-29.212 0-16.14 13.08-29.22 29.21-29.22s29.212 13.08 29.212 29.22c0 16.132-13.08 29.21-29.212 29.21z m0 0" fill="#69D998" p-id="3626"></path><path d="M293.476 433.36H220.68a15.67 15.67 0 0 1-15.672-15.672 15.672 15.672 0 0 1 15.672-15.68h72.796a15.672 15.672 0 0 1 15.672 15.68 15.67 15.67 0 0 1-15.672 15.672z m0 0" fill="#2F5066" p-id="3627"></path><path d="M140.876 562.882c-16.134 0-29.212-13.078-29.212-29.21s13.08-29.212 29.21-29.212 29.212 13.08 29.212 29.212c0 16.132-13.08 29.21-29.212 29.21z m0 0" fill="#FDB659" p-id="3628"></path><path d="M293.476 549.344H220.68a15.678 15.678 0 0 1 0-31.352h72.796a15.678 15.678 0 0 1 0 31.352z m0 0" fill="#2F5066" p-id="3629"></path></svg>
