<svg t="1566789665593" class="icon" viewBox="0 0 1963 1024" version="1.1" xmlns="http://www.w3.org/2000/svg" p-id="3523" width="200" height="200"><path d="M981.924125 983.691696c520.16541 0 941.769522-422.449473 941.769522-943.498668H40.154602C40.154602 561.319074 461.797141 983.691696 981.924125 983.691696" fill="#3BB777" p-id="3524"></path><path d="M1763.113663 40.231453c0 493.959248-378.990281 899.155691-861.460318 939.84825 26.513565 2.267102 53.180832 3.842546 80.309205 3.842545C1502.051109 983.691696 1923.732072 561.357499 1923.732072 40.231453z" fill="#229857" p-id="3525"></path><path d="M81.19299 80.462907c21.018725 479.511276 417.031483 863.074187 900.76956 863.074186S1861.636534 559.974183 1882.847386 80.462907z m900.76956 943.537093C440.509438 1024 0 582.645202 0 40.231453A40.193028 40.193028 0 0 1 40.154602 0h1883.57747a40.193028 40.193028 0 0 1 40.154603 40.231453c0 542.413749-440.471012 983.768547-981.924125 983.768547z" fill="#454849" p-id="3526"></path><path d="M981.924125 812.928965c425.946189 0 771.237345-345.829112 771.237344-772.697512H210.68678c0 426.791549 345.291155 772.697512 771.237345 772.697512" fill="#E34361" p-id="3527"></path><path d="M251.917295 80.462907c20.865023 385.253631 340.372697 692.273031 730.083681 692.273031s709.141806-306.980975 730.08368-692.273031zM981.924125 853.045142C534.53653 853.045142 170.532178 488.502833 170.532178 40.231453A40.154602 40.154602 0 0 1 210.68678 0h1542.55154a40.193028 40.193028 0 0 1 40.154603 40.231453C1793.392923 488.502833 1429.426995 853.045142 981.924125 853.045142z" fill="#454849" p-id="3528"></path><path d="M1592.619911 40.231453c0 399.624751-302.7926 728.239259-690.966566 768.509138a778.153927 778.153927 0 0 0 80.309205 4.2268c425.946189 0 771.237345-345.829112 771.237345-772.697512z" fill="#BC395B" p-id="3529"></path><path d="M251.917295 80.462907c20.865023 385.253631 340.372697 692.273031 730.083681 692.273031s709.141806-306.980975 730.08368-692.273031zM981.924125 853.045142C534.53653 853.045142 170.532178 488.502833 170.532178 40.231453A40.154602 40.154602 0 0 1 210.68678 0h1542.55154a40.193028 40.193028 0 0 1 40.154603 40.231453C1793.392923 488.502833 1429.426995 853.045142 981.924125 853.045142z" fill="#454849" p-id="3530"></path><path d="M1022.117153 402.814064a40.039326 40.039326 0 1 1-80.078652 0c0-22.171489 17.944688-85.919322 40.039326-85.919321S1022.117153 380.642576 1022.117153 402.814064M681.091223 335.684791A40.039326 40.039326 0 1 0 749.296409 377.568539c11.527637-18.905325 29.510751-82.653158 10.643851-94.257646s-67.359826 33.468573-78.887463 52.373898M554.978874 242.503058A40.077752 40.077752 0 0 1 518.743668 170.993283c19.712259-10.029044 84.536005-22.863147 94.603474-3.112462s-38.65601 64.593193-58.368268 74.622237M1276.762655 335.684791a40.039326 40.039326 0 1 1-68.243611 41.883748c-11.527637-18.905325-29.510751-82.653158-10.643852-94.257646s67.359826 33.468573 78.887463 52.373898M1402.875005 242.503058a40.077752 40.077752 0 0 0 36.19678-71.509775c-19.712259-10.029044-84.536005-22.863147-94.603475-3.112462s38.848137 64.631618 58.406695 74.622237" fill="#454849" p-id="3531"></path><path d="M504.756801 462.450373a30.048707 30.048707 0 0 1-21.287703-8.799429c-48.80033-48.80033-90.607227-114.162032-120.924912-189.014823A30.125558 30.125558 0 1 1 418.337949 242.080378c27.3205 67.398251 64.554768 125.843371 107.591279 169.07201a30.163984 30.163984 0 0 1-21.287703 51.528538M382.410147 136.333521a39.424519 39.424519 0 1 1-55.48636 4.572629 39.462944 39.462944 0 0 1 55.48636-4.572629" fill="#FEFEFE" ></path></svg>
